<svg xmlns="http://www.w3.org/2000/svg" width="23.781" height="23.781" viewBox="0 0 23.781 23.781">
  <metadata><?xpacket begin="﻿" id="W5M0MpCehiHzreSzNTczkc9d"?>
<x:xmpmeta xmlns:x="adobe:ns:meta/" x:xmptk="Adobe XMP Core 5.6-c138 79.159824, 2016/09/14-01:09:01        ">
   <rdf:RDF xmlns:rdf="http://www.w3.org/1999/02/22-rdf-syntax-ns#">
      <rdf:Description rdf:about=""/>
   </rdf:RDF>
</x:xmpmeta>                          
<?xpacket end="w"?></metadata>
<defs>
    <style>
      .cls-1 {
        fill: #515151;
        fill-rule: evenodd;
      }
    </style>
  </defs>
  <path id="矩形_11_拷贝" data-name="矩形 11 拷贝" class="cls-1" d="M582.243,418l7.071,7.071a2,2,0,0,1,0,2.828l-1.414,1.415a2,2,0,0,1-2.829,0L578,422.243l-7.071,7.071a2,2,0,0,1-2.828,0l-1.415-1.415a2,2,0,0,1,0-2.828L573.757,418l-7.071-7.071a2,2,0,0,1,0-2.829l1.415-1.414a2,2,0,0,1,2.828,0L578,413.757l7.071-7.071a2,2,0,0,1,2.829,0l1.414,1.414a2,2,0,0,1,0,2.829Z" transform="translate(-566.125 -406.125)"/>
</svg>
