<svg xmlns="http://www.w3.org/2000/svg" width="28" height="28" viewBox="0 0 28 28">
  <metadata><?xpacket begin="﻿" id="W5M0MpCehiHzreSzNTczkc9d"?>
<x:xmpmeta xmlns:x="adobe:ns:meta/" x:xmptk="Adobe XMP Core 5.6-c140 79.160451, 2017/05/06-01:08:21        ">
   <rdf:RDF xmlns:rdf="http://www.w3.org/1999/02/22-rdf-syntax-ns#">
      <rdf:Description rdf:about=""/>
   </rdf:RDF>
</x:xmpmeta>
                                                                                                    
                                                                                                    
                                                                                                    
                                                                                                    
                                                                                                    
                                                                                                    
                                                                                                    
                                                                                                    
                                                                                                    
                                                                                                    
                                                                                                    
                                                                                                    
                                                                                                    
                                                                                                    
                                                                                                    
                                                                                                    
                                                                                                    
                                                                                                    
                                                                                                    
                                                                                                    
                           
<?xpacket end="w"?></metadata>
<defs>
    <style>
      .cls-1 {
        fill: #1ebf97;
        fill-rule: evenodd;
      }
    </style>
  </defs>
  <path id="男" class="cls-1" d="M362,263a8,8,0,1,1-9-7.931V247.5l-3.308,3.212a1.01,1.01,0,0,1-1.4,0,0.94,0.94,0,0,1,0-1.357l4.195-4.073a0.84,0.84,0,0,1,.262-0.169,0.965,0.965,0,0,1,.25-0.077h0V245a1,1,0,0,1,2,0v0.127a0.956,0.956,0,0,1,.691.266l4.027,3.91a0.9,0.9,0,0,1,0,1.3,0.969,0.969,0,0,1-1.342,0L355,247.329v7.74A8,8,0,0,1,362,263Zm-14,0a6,6,0,1,0,6-6A6,6,0,0,0,348,263Z" transform="translate(-340 -243.5)"/>
</svg>
